<mxfile host="Electron" agent="Mozilla/5.0 (X11; Linux x86_64) AppleWebKit/537.36 (KHTML, like Gecko) draw.io/26.0.7 Chrome/128.0.6613.186 Electron/32.2.5 Safari/537.36" version="26.0.7">
  <diagram name="Page-1" id="c4acf3e9-155e-7222-9cf6-157b1a14988f">
    <mxGraphModel dx="2216" dy="1914" grid="1" gridSize="10" guides="1" tooltips="1" connect="1" arrows="1" fold="1" page="1" pageScale="1" pageWidth="850" pageHeight="1100" background="none" math="0" shadow="0">
      <root>
        <mxCell id="0" />
        <mxCell id="1" parent="0" />
        <mxCell id="2pVqwqvjS9LqauzNDk25-103" style="edgeStyle=orthogonalEdgeStyle;rounded=0;orthogonalLoop=1;jettySize=auto;html=1;endArrow=none;startFill=0;" parent="1" source="2pVqwqvjS9LqauzNDk25-6" target="0NqdiBWct_r0nhPSizSn-12" edge="1">
          <mxGeometry relative="1" as="geometry" />
        </mxCell>
        <mxCell id="2pVqwqvjS9LqauzNDk25-104" value="0..*" style="edgeLabel;html=1;align=center;verticalAlign=middle;resizable=0;points=[];" parent="2pVqwqvjS9LqauzNDk25-103" vertex="1" connectable="0">
          <mxGeometry x="-0.9394" y="-1" relative="1" as="geometry">
            <mxPoint x="7" y="-12" as="offset" />
          </mxGeometry>
        </mxCell>
        <mxCell id="2pVqwqvjS9LqauzNDk25-105" value="0..*" style="edgeLabel;html=1;align=center;verticalAlign=middle;resizable=0;points=[];" parent="2pVqwqvjS9LqauzNDk25-103" vertex="1" connectable="0">
          <mxGeometry x="0.849" y="1" relative="1" as="geometry">
            <mxPoint x="238" y="419" as="offset" />
          </mxGeometry>
        </mxCell>
        <mxCell id="0NqdiBWct_r0nhPSizSn-33" value="0..*" style="edgeLabel;html=1;align=center;verticalAlign=middle;resizable=0;points=[];" parent="2pVqwqvjS9LqauzNDk25-103" vertex="1" connectable="0">
          <mxGeometry x="-0.9394" y="-1" relative="1" as="geometry">
            <mxPoint x="-13" y="77" as="offset" />
          </mxGeometry>
        </mxCell>
        <mxCell id="0NqdiBWct_r0nhPSizSn-31" style="edgeStyle=orthogonalEdgeStyle;rounded=0;orthogonalLoop=1;jettySize=auto;html=1;endArrow=none;startFill=0;" parent="1" source="2pVqwqvjS9LqauzNDk25-6" target="0NqdiBWct_r0nhPSizSn-26" edge="1">
          <mxGeometry relative="1" as="geometry">
            <Array as="points">
              <mxPoint x="300" y="270" />
              <mxPoint x="300" y="270" />
            </Array>
          </mxGeometry>
        </mxCell>
        <mxCell id="rWIqrQfGSt81gzxZxEG9-31" style="edgeStyle=orthogonalEdgeStyle;rounded=0;orthogonalLoop=1;jettySize=auto;html=1;endArrow=none;startFill=0;" parent="1" source="2pVqwqvjS9LqauzNDk25-6" target="rWIqrQfGSt81gzxZxEG9-24" edge="1">
          <mxGeometry relative="1" as="geometry">
            <Array as="points">
              <mxPoint x="-30" y="200" />
              <mxPoint x="-30" y="530" />
            </Array>
          </mxGeometry>
        </mxCell>
        <mxCell id="2pVqwqvjS9LqauzNDk25-6" value="users" style="swimlane;fontStyle=0;childLayout=stackLayout;horizontal=1;startSize=26;fillColor=none;horizontalStack=0;resizeParent=1;resizeParentMax=0;resizeLast=0;collapsible=1;marginBottom=0;whiteSpace=wrap;html=1;" parent="1" vertex="1">
          <mxGeometry x="190" y="127" width="140" height="130" as="geometry" />
        </mxCell>
        <mxCell id="2pVqwqvjS9LqauzNDk25-7" value="+ uid : int (PK)" style="text;strokeColor=none;fillColor=none;align=left;verticalAlign=top;spacingLeft=4;spacingRight=4;overflow=hidden;rotatable=0;points=[[0,0.5],[1,0.5]];portConstraint=eastwest;whiteSpace=wrap;html=1;" parent="2pVqwqvjS9LqauzNDk25-6" vertex="1">
          <mxGeometry y="26" width="140" height="26" as="geometry" />
        </mxCell>
        <mxCell id="0NqdiBWct_r0nhPSizSn-37" value="+ uname : string" style="text;strokeColor=none;fillColor=none;align=left;verticalAlign=top;spacingLeft=4;spacingRight=4;overflow=hidden;rotatable=0;points=[[0,0.5],[1,0.5]];portConstraint=eastwest;whiteSpace=wrap;html=1;" parent="2pVqwqvjS9LqauzNDk25-6" vertex="1">
          <mxGeometry y="52" width="140" height="26" as="geometry" />
        </mxCell>
        <mxCell id="2pVqwqvjS9LqauzNDk25-8" value="+ created_at : datetime" style="text;strokeColor=none;fillColor=none;align=left;verticalAlign=top;spacingLeft=4;spacingRight=4;overflow=hidden;rotatable=0;points=[[0,0.5],[1,0.5]];portConstraint=eastwest;whiteSpace=wrap;html=1;" parent="2pVqwqvjS9LqauzNDk25-6" vertex="1">
          <mxGeometry y="78" width="140" height="26" as="geometry" />
        </mxCell>
        <mxCell id="2pVqwqvjS9LqauzNDk25-9" value="+ bio : string&lt;div&gt;&amp;nbsp;&lt;/div&gt;" style="text;strokeColor=none;fillColor=none;align=left;verticalAlign=top;spacingLeft=4;spacingRight=4;overflow=hidden;rotatable=0;points=[[0,0.5],[1,0.5]];portConstraint=eastwest;whiteSpace=wrap;html=1;" parent="2pVqwqvjS9LqauzNDk25-6" vertex="1">
          <mxGeometry y="104" width="140" height="26" as="geometry" />
        </mxCell>
        <mxCell id="rWIqrQfGSt81gzxZxEG9-15" style="edgeStyle=orthogonalEdgeStyle;rounded=0;orthogonalLoop=1;jettySize=auto;html=1;entryX=0;entryY=0.654;entryDx=0;entryDy=0;entryPerimeter=0;endArrow=none;startFill=0;" parent="2pVqwqvjS9LqauzNDk25-6" source="2pVqwqvjS9LqauzNDk25-6" target="2pVqwqvjS9LqauzNDk25-7" edge="1">
          <mxGeometry relative="1" as="geometry">
            <Array as="points">
              <mxPoint x="70" y="-67" />
              <mxPoint x="-60" y="-67" />
              <mxPoint x="-60" y="43" />
            </Array>
          </mxGeometry>
        </mxCell>
        <mxCell id="2pVqwqvjS9LqauzNDk25-92" style="edgeStyle=orthogonalEdgeStyle;rounded=0;orthogonalLoop=1;jettySize=auto;html=1;endArrow=none;startFill=0;" parent="1" source="2pVqwqvjS9LqauzNDk25-11" target="2pVqwqvjS9LqauzNDk25-20" edge="1">
          <mxGeometry relative="1" as="geometry" />
        </mxCell>
        <mxCell id="2pVqwqvjS9LqauzNDk25-94" value="0..*" style="edgeLabel;html=1;align=center;verticalAlign=middle;resizable=0;points=[];" parent="2pVqwqvjS9LqauzNDk25-92" vertex="1" connectable="0">
          <mxGeometry x="-0.6167" y="-1" relative="1" as="geometry">
            <mxPoint x="2" y="-14" as="offset" />
          </mxGeometry>
        </mxCell>
        <mxCell id="2pVqwqvjS9LqauzNDk25-100" style="edgeStyle=orthogonalEdgeStyle;rounded=0;orthogonalLoop=1;jettySize=auto;html=1;endArrow=none;startFill=0;" parent="1" source="2pVqwqvjS9LqauzNDk25-11" target="0NqdiBWct_r0nhPSizSn-26" edge="1">
          <mxGeometry relative="1" as="geometry">
            <mxPoint x="330.02857142857147" y="570" as="targetPoint" />
            <Array as="points">
              <mxPoint x="388" y="400" />
              <mxPoint x="388" y="339" />
            </Array>
          </mxGeometry>
        </mxCell>
        <mxCell id="2pVqwqvjS9LqauzNDk25-101" value="0..*" style="edgeLabel;html=1;align=center;verticalAlign=middle;resizable=0;points=[];" parent="2pVqwqvjS9LqauzNDk25-100" vertex="1" connectable="0">
          <mxGeometry x="-0.6891" y="-1" relative="1" as="geometry">
            <mxPoint x="7" y="-9" as="offset" />
          </mxGeometry>
        </mxCell>
        <mxCell id="2pVqwqvjS9LqauzNDk25-127" style="edgeStyle=orthogonalEdgeStyle;rounded=0;orthogonalLoop=1;jettySize=auto;html=1;endArrow=none;startFill=0;" parent="1" source="2pVqwqvjS9LqauzNDk25-11" target="0NqdiBWct_r0nhPSizSn-6" edge="1">
          <mxGeometry relative="1" as="geometry">
            <mxPoint x="534.71" y="570" as="sourcePoint" />
            <mxPoint x="534.71" y="739" as="targetPoint" />
            <Array as="points">
              <mxPoint x="470" y="570" />
              <mxPoint x="470" y="570" />
            </Array>
          </mxGeometry>
        </mxCell>
        <mxCell id="2pVqwqvjS9LqauzNDk25-129" value="1..*" style="edgeLabel;html=1;align=center;verticalAlign=middle;resizable=0;points=[];" parent="2pVqwqvjS9LqauzNDk25-127" vertex="1" connectable="0">
          <mxGeometry x="0.7197" y="1" relative="1" as="geometry">
            <mxPoint x="-141" y="35" as="offset" />
          </mxGeometry>
        </mxCell>
        <mxCell id="2pVqwqvjS9LqauzNDk25-130" value="0..*" style="edgeLabel;html=1;align=center;verticalAlign=middle;resizable=0;points=[];" parent="2pVqwqvjS9LqauzNDk25-127" vertex="1" connectable="0">
          <mxGeometry x="0.7197" y="1" relative="1" as="geometry">
            <mxPoint x="-21" y="-35" as="offset" />
          </mxGeometry>
        </mxCell>
        <mxCell id="rWIqrQfGSt81gzxZxEG9-64" value="1..1" style="edgeLabel;html=1;align=center;verticalAlign=middle;resizable=0;points=[];" parent="2pVqwqvjS9LqauzNDk25-127" vertex="1" connectable="0">
          <mxGeometry x="0.7197" y="1" relative="1" as="geometry">
            <mxPoint x="99" y="-61" as="offset" />
          </mxGeometry>
        </mxCell>
        <mxCell id="rWIqrQfGSt81gzxZxEG9-65" value="0..*" style="edgeLabel;html=1;align=center;verticalAlign=middle;resizable=0;points=[];" parent="2pVqwqvjS9LqauzNDk25-127" vertex="1" connectable="0">
          <mxGeometry x="0.7197" y="1" relative="1" as="geometry">
            <mxPoint x="129" y="19" as="offset" />
          </mxGeometry>
        </mxCell>
        <mxCell id="2pVqwqvjS9LqauzNDk25-11" value="games" style="swimlane;fontStyle=0;childLayout=stackLayout;horizontal=1;startSize=26;fillColor=none;horizontalStack=0;resizeParent=1;resizeParentMax=0;resizeLast=0;collapsible=1;marginBottom=0;whiteSpace=wrap;html=1;" parent="1" vertex="1">
          <mxGeometry x="445" y="338" width="180" height="182" as="geometry" />
        </mxCell>
        <mxCell id="2pVqwqvjS9LqauzNDk25-12" value="+ gid : int (PK)" style="text;strokeColor=none;fillColor=none;align=left;verticalAlign=top;spacingLeft=4;spacingRight=4;overflow=hidden;rotatable=0;points=[[0,0.5],[1,0.5]];portConstraint=eastwest;whiteSpace=wrap;html=1;" parent="2pVqwqvjS9LqauzNDk25-11" vertex="1">
          <mxGeometry y="26" width="180" height="26" as="geometry" />
        </mxCell>
        <mxCell id="2pVqwqvjS9LqauzNDk25-13" value="+ cid : int (FK)" style="text;strokeColor=none;fillColor=none;align=left;verticalAlign=top;spacingLeft=4;spacingRight=4;overflow=hidden;rotatable=0;points=[[0,0.5],[1,0.5]];portConstraint=eastwest;whiteSpace=wrap;html=1;" parent="2pVqwqvjS9LqauzNDk25-11" vertex="1">
          <mxGeometry y="52" width="180" height="26" as="geometry" />
        </mxCell>
        <mxCell id="0NqdiBWct_r0nhPSizSn-38" value="+ gname : string" style="text;strokeColor=none;fillColor=none;align=left;verticalAlign=top;spacingLeft=4;spacingRight=4;overflow=hidden;rotatable=0;points=[[0,0.5],[1,0.5]];portConstraint=eastwest;whiteSpace=wrap;html=1;" parent="2pVqwqvjS9LqauzNDk25-11" vertex="1">
          <mxGeometry y="78" width="180" height="26" as="geometry" />
        </mxCell>
        <mxCell id="0NqdiBWct_r0nhPSizSn-5" value="+ descr : string&lt;div&gt;&amp;nbsp;&lt;/div&gt;" style="text;strokeColor=none;fillColor=none;align=left;verticalAlign=top;spacingLeft=4;spacingRight=4;overflow=hidden;rotatable=0;points=[[0,0.5],[1,0.5]];portConstraint=eastwest;whiteSpace=wrap;html=1;" parent="2pVqwqvjS9LqauzNDk25-11" vertex="1">
          <mxGeometry y="104" width="180" height="26" as="geometry" />
        </mxCell>
        <mxCell id="2pVqwqvjS9LqauzNDk25-25" value="+ rating : rating_type" style="text;strokeColor=none;fillColor=none;align=left;verticalAlign=top;spacingLeft=4;spacingRight=4;overflow=hidden;rotatable=0;points=[[0,0.5],[1,0.5]];portConstraint=eastwest;whiteSpace=wrap;html=1;" parent="2pVqwqvjS9LqauzNDk25-11" vertex="1">
          <mxGeometry y="130" width="180" height="26" as="geometry" />
        </mxCell>
        <mxCell id="2pVqwqvjS9LqauzNDk25-85" value="+ released_at : datetime" style="text;strokeColor=none;fillColor=none;align=left;verticalAlign=top;spacingLeft=4;spacingRight=4;overflow=hidden;rotatable=0;points=[[0,0.5],[1,0.5]];portConstraint=eastwest;whiteSpace=wrap;html=1;" parent="2pVqwqvjS9LqauzNDk25-11" vertex="1">
          <mxGeometry y="156" width="180" height="26" as="geometry" />
        </mxCell>
        <mxCell id="2pVqwqvjS9LqauzNDk25-15" value="tags" style="swimlane;fontStyle=0;childLayout=stackLayout;horizontal=1;startSize=26;fillColor=none;horizontalStack=0;resizeParent=1;resizeParentMax=0;resizeLast=0;collapsible=1;marginBottom=0;whiteSpace=wrap;html=1;" parent="1" vertex="1">
          <mxGeometry x="920" y="390" width="140" height="78" as="geometry" />
        </mxCell>
        <mxCell id="2pVqwqvjS9LqauzNDk25-16" value="+ tname : string (PK)" style="text;strokeColor=none;fillColor=none;align=left;verticalAlign=top;spacingLeft=4;spacingRight=4;overflow=hidden;rotatable=0;points=[[0,0.5],[1,0.5]];portConstraint=eastwest;whiteSpace=wrap;html=1;" parent="2pVqwqvjS9LqauzNDk25-15" vertex="1">
          <mxGeometry y="26" width="140" height="26" as="geometry" />
        </mxCell>
        <mxCell id="2pVqwqvjS9LqauzNDk25-19" value="+ descr : string&lt;div&gt;&amp;nbsp;&lt;/div&gt;" style="text;strokeColor=none;fillColor=none;align=left;verticalAlign=top;spacingLeft=4;spacingRight=4;overflow=hidden;rotatable=0;points=[[0,0.5],[1,0.5]];portConstraint=eastwest;whiteSpace=wrap;html=1;" parent="2pVqwqvjS9LqauzNDk25-15" vertex="1">
          <mxGeometry y="52" width="140" height="26" as="geometry" />
        </mxCell>
        <mxCell id="2pVqwqvjS9LqauzNDk25-93" style="edgeStyle=orthogonalEdgeStyle;rounded=0;orthogonalLoop=1;jettySize=auto;html=1;endArrow=none;startFill=0;" parent="1" source="2pVqwqvjS9LqauzNDk25-20" target="2pVqwqvjS9LqauzNDk25-15" edge="1">
          <mxGeometry relative="1" as="geometry" />
        </mxCell>
        <mxCell id="2pVqwqvjS9LqauzNDk25-96" value="0..*" style="edgeLabel;html=1;align=center;verticalAlign=middle;resizable=0;points=[];" parent="2pVqwqvjS9LqauzNDk25-93" vertex="1" connectable="0">
          <mxGeometry x="0.4073" y="3" relative="1" as="geometry">
            <mxPoint x="-2" y="-10" as="offset" />
          </mxGeometry>
        </mxCell>
        <mxCell id="2pVqwqvjS9LqauzNDk25-20" value="game_tag" style="swimlane;fontStyle=0;childLayout=stackLayout;horizontal=1;startSize=26;fillColor=none;horizontalStack=0;resizeParent=1;resizeParentMax=0;resizeLast=0;collapsible=1;marginBottom=0;whiteSpace=wrap;html=1;" parent="1" vertex="1">
          <mxGeometry x="710" y="390" width="150" height="78" as="geometry" />
        </mxCell>
        <mxCell id="2pVqwqvjS9LqauzNDk25-22" value="+ gid : int (PK,FK)&lt;div&gt;&amp;nbsp;&lt;/div&gt;" style="text;strokeColor=none;fillColor=none;align=left;verticalAlign=top;spacingLeft=4;spacingRight=4;overflow=hidden;rotatable=0;points=[[0,0.5],[1,0.5]];portConstraint=eastwest;whiteSpace=wrap;html=1;" parent="2pVqwqvjS9LqauzNDk25-20" vertex="1">
          <mxGeometry y="26" width="150" height="26" as="geometry" />
        </mxCell>
        <mxCell id="2pVqwqvjS9LqauzNDk25-21" value="+ tname : string(PK,FK)" style="text;strokeColor=none;fillColor=none;align=left;verticalAlign=top;spacingLeft=4;spacingRight=4;overflow=hidden;rotatable=0;points=[[0,0.5],[1,0.5]];portConstraint=eastwest;whiteSpace=wrap;html=1;" parent="2pVqwqvjS9LqauzNDk25-20" vertex="1">
          <mxGeometry y="52" width="150" height="26" as="geometry" />
        </mxCell>
        <mxCell id="rWIqrQfGSt81gzxZxEG9-3" style="edgeStyle=orthogonalEdgeStyle;rounded=0;orthogonalLoop=1;jettySize=auto;html=1;endArrow=none;startFill=0;exitX=1;exitY=0.5;exitDx=0;exitDy=0;" parent="1" source="0NqdiBWct_r0nhPSizSn-35" target="2pVqwqvjS9LqauzNDk25-11" edge="1">
          <mxGeometry relative="1" as="geometry">
            <Array as="points">
              <mxPoint x="350" y="401" />
              <mxPoint x="350" y="430" />
            </Array>
          </mxGeometry>
        </mxCell>
        <mxCell id="2pVqwqvjS9LqauzNDk25-31" value="reviews" style="swimlane;fontStyle=0;childLayout=stackLayout;horizontal=1;startSize=26;fillColor=none;horizontalStack=0;resizeParent=1;resizeParentMax=0;resizeLast=0;collapsible=1;marginBottom=0;whiteSpace=wrap;html=1;" parent="1" vertex="1">
          <mxGeometry x="-10" y="310" width="150" height="182" as="geometry" />
        </mxCell>
        <mxCell id="2pVqwqvjS9LqauzNDk25-32" value="+ rid : int (PK)&lt;div&gt;&amp;nbsp;&lt;/div&gt;" style="text;strokeColor=none;fillColor=none;align=left;verticalAlign=top;spacingLeft=4;spacingRight=4;overflow=hidden;rotatable=0;points=[[0,0.5],[1,0.5]];portConstraint=eastwest;whiteSpace=wrap;html=1;" parent="2pVqwqvjS9LqauzNDk25-31" vertex="1">
          <mxGeometry y="26" width="150" height="26" as="geometry" />
        </mxCell>
        <mxCell id="2pVqwqvjS9LqauzNDk25-36" value="+ gid : int (FK)&amp;nbsp;" style="text;strokeColor=none;fillColor=none;align=left;verticalAlign=top;spacingLeft=4;spacingRight=4;overflow=hidden;rotatable=0;points=[[0,0.5],[1,0.5]];portConstraint=eastwest;whiteSpace=wrap;html=1;" parent="2pVqwqvjS9LqauzNDk25-31" vertex="1">
          <mxGeometry y="52" width="150" height="26" as="geometry" />
        </mxCell>
        <mxCell id="0NqdiBWct_r0nhPSizSn-35" value="+ uid : int (FK)&amp;nbsp;" style="text;strokeColor=none;fillColor=none;align=left;verticalAlign=top;spacingLeft=4;spacingRight=4;overflow=hidden;rotatable=0;points=[[0,0.5],[1,0.5]];portConstraint=eastwest;whiteSpace=wrap;html=1;" parent="2pVqwqvjS9LqauzNDk25-31" vertex="1">
          <mxGeometry y="78" width="150" height="26" as="geometry" />
        </mxCell>
        <mxCell id="rWIqrQfGSt81gzxZxEG9-1" value="+ rated : float&amp;nbsp;" style="text;strokeColor=none;fillColor=none;align=left;verticalAlign=top;spacingLeft=4;spacingRight=4;overflow=hidden;rotatable=0;points=[[0,0.5],[1,0.5]];portConstraint=eastwest;whiteSpace=wrap;html=1;" parent="2pVqwqvjS9LqauzNDk25-31" vertex="1">
          <mxGeometry y="104" width="150" height="26" as="geometry" />
        </mxCell>
        <mxCell id="2pVqwqvjS9LqauzNDk25-33" value="+ text : string&amp;nbsp;" style="text;strokeColor=none;fillColor=none;align=left;verticalAlign=top;spacingLeft=4;spacingRight=4;overflow=hidden;rotatable=0;points=[[0,0.5],[1,0.5]];portConstraint=eastwest;whiteSpace=wrap;html=1;" parent="2pVqwqvjS9LqauzNDk25-31" vertex="1">
          <mxGeometry y="130" width="150" height="26" as="geometry" />
        </mxCell>
        <mxCell id="2pVqwqvjS9LqauzNDk25-34" value="+ reviewed_at : datetime" style="text;strokeColor=none;fillColor=none;align=left;verticalAlign=top;spacingLeft=4;spacingRight=4;overflow=hidden;rotatable=0;points=[[0,0.5],[1,0.5]];portConstraint=eastwest;whiteSpace=wrap;html=1;" parent="2pVqwqvjS9LqauzNDk25-31" vertex="1">
          <mxGeometry y="156" width="150" height="26" as="geometry" />
        </mxCell>
        <mxCell id="2pVqwqvjS9LqauzNDk25-110" style="edgeStyle=orthogonalEdgeStyle;rounded=0;orthogonalLoop=1;jettySize=auto;html=1;endArrow=none;startFill=0;" parent="1" edge="1">
          <mxGeometry relative="1" as="geometry">
            <mxPoint x="190" y="230" as="sourcePoint" />
            <mxPoint x="60" y="310" as="targetPoint" />
            <Array as="points">
              <mxPoint x="190" y="230" />
              <mxPoint x="60" y="230" />
            </Array>
          </mxGeometry>
        </mxCell>
        <mxCell id="2pVqwqvjS9LqauzNDk25-111" value="0..*" style="edgeLabel;html=1;align=center;verticalAlign=middle;resizable=0;points=[];" parent="2pVqwqvjS9LqauzNDk25-110" vertex="1" connectable="0">
          <mxGeometry x="0.8116" y="-2" relative="1" as="geometry">
            <mxPoint x="362" y="148" as="offset" />
          </mxGeometry>
        </mxCell>
        <mxCell id="2pVqwqvjS9LqauzNDk25-112" value="0..*" style="edgeLabel;html=1;align=center;verticalAlign=middle;resizable=0;points=[];" parent="2pVqwqvjS9LqauzNDk25-110" vertex="1" connectable="0">
          <mxGeometry x="-0.7492" y="2" relative="1" as="geometry">
            <mxPoint x="6" y="-11" as="offset" />
          </mxGeometry>
        </mxCell>
        <mxCell id="rWIqrQfGSt81gzxZxEG9-41" value="0..*" style="edgeLabel;html=1;align=center;verticalAlign=middle;resizable=0;points=[];" parent="2pVqwqvjS9LqauzNDk25-110" vertex="1" connectable="0">
          <mxGeometry x="-0.7492" y="2" relative="1" as="geometry">
            <mxPoint x="6" y="-42" as="offset" />
          </mxGeometry>
        </mxCell>
        <mxCell id="rWIqrQfGSt81gzxZxEG9-42" value="0..*" style="edgeLabel;html=1;align=center;verticalAlign=middle;resizable=0;points=[];" parent="2pVqwqvjS9LqauzNDk25-110" vertex="1" connectable="0">
          <mxGeometry x="-0.7492" y="2" relative="1" as="geometry">
            <mxPoint x="267" y="268" as="offset" />
          </mxGeometry>
        </mxCell>
        <mxCell id="0NqdiBWct_r0nhPSizSn-1" value="Developers" style="swimlane;fontStyle=0;childLayout=stackLayout;horizontal=1;startSize=26;fillColor=none;horizontalStack=0;resizeParent=1;resizeParentMax=0;resizeLast=0;collapsible=1;marginBottom=0;whiteSpace=wrap;html=1;" parent="1" vertex="1">
          <mxGeometry x="167.5" y="590" width="150" height="104" as="geometry" />
        </mxCell>
        <mxCell id="0NqdiBWct_r0nhPSizSn-2" value="+ did : int (PK)&lt;div&gt;&amp;nbsp;&lt;/div&gt;" style="text;strokeColor=none;fillColor=none;align=left;verticalAlign=top;spacingLeft=4;spacingRight=4;overflow=hidden;rotatable=0;points=[[0,0.5],[1,0.5]];portConstraint=eastwest;whiteSpace=wrap;html=1;" parent="0NqdiBWct_r0nhPSizSn-1" vertex="1">
          <mxGeometry y="26" width="150" height="26" as="geometry" />
        </mxCell>
        <mxCell id="0NqdiBWct_r0nhPSizSn-3" value="+ cname : string&amp;nbsp;" style="text;strokeColor=none;fillColor=none;align=left;verticalAlign=top;spacingLeft=4;spacingRight=4;overflow=hidden;rotatable=0;points=[[0,0.5],[1,0.5]];portConstraint=eastwest;whiteSpace=wrap;html=1;" parent="0NqdiBWct_r0nhPSizSn-1" vertex="1">
          <mxGeometry y="52" width="150" height="26" as="geometry" />
        </mxCell>
        <mxCell id="0NqdiBWct_r0nhPSizSn-4" value="+ descr : string&amp;nbsp;" style="text;strokeColor=none;fillColor=none;align=left;verticalAlign=top;spacingLeft=4;spacingRight=4;overflow=hidden;rotatable=0;points=[[0,0.5],[1,0.5]];portConstraint=eastwest;whiteSpace=wrap;html=1;" parent="0NqdiBWct_r0nhPSizSn-1" vertex="1">
          <mxGeometry y="78" width="150" height="26" as="geometry" />
        </mxCell>
        <mxCell id="0NqdiBWct_r0nhPSizSn-11" style="edgeStyle=orthogonalEdgeStyle;rounded=0;orthogonalLoop=1;jettySize=auto;html=1;endArrow=none;startFill=0;" parent="1" source="0NqdiBWct_r0nhPSizSn-6" target="0NqdiBWct_r0nhPSizSn-1" edge="1">
          <mxGeometry relative="1" as="geometry" />
        </mxCell>
        <mxCell id="0NqdiBWct_r0nhPSizSn-6" value="Developer_Game" style="swimlane;fontStyle=0;childLayout=stackLayout;horizontal=1;startSize=26;fillColor=none;horizontalStack=0;resizeParent=1;resizeParentMax=0;resizeLast=0;collapsible=1;marginBottom=0;whiteSpace=wrap;html=1;" parent="1" vertex="1">
          <mxGeometry x="380" y="603" width="150" height="78" as="geometry" />
        </mxCell>
        <mxCell id="0NqdiBWct_r0nhPSizSn-7" value="+ did : int (PK,FK)&lt;div&gt;&amp;nbsp;&lt;/div&gt;" style="text;strokeColor=none;fillColor=none;align=left;verticalAlign=top;spacingLeft=4;spacingRight=4;overflow=hidden;rotatable=0;points=[[0,0.5],[1,0.5]];portConstraint=eastwest;whiteSpace=wrap;html=1;" parent="0NqdiBWct_r0nhPSizSn-6" vertex="1">
          <mxGeometry y="26" width="150" height="26" as="geometry" />
        </mxCell>
        <mxCell id="0NqdiBWct_r0nhPSizSn-10" value="+ gid : int (PK,FK)" style="text;strokeColor=none;fillColor=none;align=left;verticalAlign=top;spacingLeft=4;spacingRight=4;overflow=hidden;rotatable=0;points=[[0,0.5],[1,0.5]];portConstraint=eastwest;whiteSpace=wrap;html=1;" parent="0NqdiBWct_r0nhPSizSn-6" vertex="1">
          <mxGeometry y="52" width="150" height="26" as="geometry" />
        </mxCell>
        <mxCell id="0NqdiBWct_r0nhPSizSn-17" style="edgeStyle=orthogonalEdgeStyle;rounded=0;orthogonalLoop=1;jettySize=auto;html=1;endArrow=none;startFill=0;" parent="1" source="0NqdiBWct_r0nhPSizSn-12" target="rWIqrQfGSt81gzxZxEG9-46" edge="1">
          <mxGeometry relative="1" as="geometry">
            <Array as="points">
              <mxPoint x="660" y="192" />
            </Array>
          </mxGeometry>
        </mxCell>
        <mxCell id="0NqdiBWct_r0nhPSizSn-12" value="transections" style="swimlane;fontStyle=0;childLayout=stackLayout;horizontal=1;startSize=26;fillColor=none;horizontalStack=0;resizeParent=1;resizeParentMax=0;resizeLast=0;collapsible=1;marginBottom=0;whiteSpace=wrap;html=1;" parent="1" vertex="1">
          <mxGeometry x="440" y="101" width="185" height="182" as="geometry" />
        </mxCell>
        <mxCell id="0NqdiBWct_r0nhPSizSn-13" value="+ tid : int (PK)" style="text;strokeColor=none;fillColor=none;align=left;verticalAlign=top;spacingLeft=4;spacingRight=4;overflow=hidden;rotatable=0;points=[[0,0.5],[1,0.5]];portConstraint=eastwest;whiteSpace=wrap;html=1;" parent="0NqdiBWct_r0nhPSizSn-12" vertex="1">
          <mxGeometry y="26" width="185" height="26" as="geometry" />
        </mxCell>
        <mxCell id="0NqdiBWct_r0nhPSizSn-18" value="+ uid : int (FK)" style="text;strokeColor=none;fillColor=none;align=left;verticalAlign=top;spacingLeft=4;spacingRight=4;overflow=hidden;rotatable=0;points=[[0,0.5],[1,0.5]];portConstraint=eastwest;whiteSpace=wrap;html=1;" parent="0NqdiBWct_r0nhPSizSn-12" vertex="1">
          <mxGeometry y="52" width="185" height="26" as="geometry" />
        </mxCell>
        <mxCell id="Zc4zKIkPFqTuDIG2BIl9-13" value="+ receiver_uid : int (FK)" style="text;strokeColor=none;fillColor=none;align=left;verticalAlign=top;spacingLeft=4;spacingRight=4;overflow=hidden;rotatable=0;points=[[0,0.5],[1,0.5]];portConstraint=eastwest;whiteSpace=wrap;html=1;" vertex="1" parent="0NqdiBWct_r0nhPSizSn-12">
          <mxGeometry y="78" width="185" height="26" as="geometry" />
        </mxCell>
        <mxCell id="rWIqrQfGSt81gzxZxEG9-45" value="+ pid : int (FK)" style="text;strokeColor=none;fillColor=none;align=left;verticalAlign=top;spacingLeft=4;spacingRight=4;overflow=hidden;rotatable=0;points=[[0,0.5],[1,0.5]];portConstraint=eastwest;whiteSpace=wrap;html=1;" parent="0NqdiBWct_r0nhPSizSn-12" vertex="1">
          <mxGeometry y="104" width="185" height="26" as="geometry" />
        </mxCell>
        <mxCell id="0NqdiBWct_r0nhPSizSn-20" value="+ payment_method : t_method" style="text;strokeColor=none;fillColor=none;align=left;verticalAlign=top;spacingLeft=4;spacingRight=4;overflow=hidden;rotatable=0;points=[[0,0.5],[1,0.5]];portConstraint=eastwest;whiteSpace=wrap;html=1;" parent="0NqdiBWct_r0nhPSizSn-12" vertex="1">
          <mxGeometry y="130" width="185" height="26" as="geometry" />
        </mxCell>
        <mxCell id="0NqdiBWct_r0nhPSizSn-14" value="+ bought_at: datetime" style="text;strokeColor=none;fillColor=none;align=left;verticalAlign=top;spacingLeft=4;spacingRight=4;overflow=hidden;rotatable=0;points=[[0,0.5],[1,0.5]];portConstraint=eastwest;whiteSpace=wrap;html=1;" parent="0NqdiBWct_r0nhPSizSn-12" vertex="1">
          <mxGeometry y="156" width="185" height="26" as="geometry" />
        </mxCell>
        <mxCell id="0NqdiBWct_r0nhPSizSn-26" value="game_user" style="swimlane;fontStyle=0;childLayout=stackLayout;horizontal=1;startSize=26;fillColor=none;horizontalStack=0;resizeParent=1;resizeParentMax=0;resizeLast=0;collapsible=1;marginBottom=0;whiteSpace=wrap;html=1;" parent="1" vertex="1">
          <mxGeometry x="230" y="283" width="140" height="104" as="geometry" />
        </mxCell>
        <mxCell id="0NqdiBWct_r0nhPSizSn-27" value="+ uid : int (PK,FK)" style="text;strokeColor=none;fillColor=none;align=left;verticalAlign=top;spacingLeft=4;spacingRight=4;overflow=hidden;rotatable=0;points=[[0,0.5],[1,0.5]];portConstraint=eastwest;whiteSpace=wrap;html=1;" parent="0NqdiBWct_r0nhPSizSn-26" vertex="1">
          <mxGeometry y="26" width="140" height="26" as="geometry" />
        </mxCell>
        <mxCell id="0NqdiBWct_r0nhPSizSn-28" value="+ gid : int (PK,FK)" style="text;strokeColor=none;fillColor=none;align=left;verticalAlign=top;spacingLeft=4;spacingRight=4;overflow=hidden;rotatable=0;points=[[0,0.5],[1,0.5]];portConstraint=eastwest;whiteSpace=wrap;html=1;" parent="0NqdiBWct_r0nhPSizSn-26" vertex="1">
          <mxGeometry y="52" width="140" height="26" as="geometry" />
        </mxCell>
        <mxCell id="Zc4zKIkPFqTuDIG2BIl9-14" value="+ wishlist:&amp;nbsp; boolean" style="text;strokeColor=none;fillColor=none;align=left;verticalAlign=top;spacingLeft=4;spacingRight=4;overflow=hidden;rotatable=0;points=[[0,0.5],[1,0.5]];portConstraint=eastwest;whiteSpace=wrap;html=1;" vertex="1" parent="0NqdiBWct_r0nhPSizSn-26">
          <mxGeometry y="78" width="140" height="26" as="geometry" />
        </mxCell>
        <mxCell id="rWIqrQfGSt81gzxZxEG9-4" value="friends" style="swimlane;fontStyle=0;childLayout=stackLayout;horizontal=1;startSize=26;fillColor=none;horizontalStack=0;resizeParent=1;resizeParentMax=0;resizeLast=0;collapsible=1;marginBottom=0;whiteSpace=wrap;html=1;" parent="1" vertex="1">
          <mxGeometry x="110" y="-90" width="170" height="130" as="geometry" />
        </mxCell>
        <mxCell id="rWIqrQfGSt81gzxZxEG9-5" value="+ uid: int (PK,FK)" style="text;strokeColor=none;fillColor=none;align=left;verticalAlign=top;spacingLeft=4;spacingRight=4;overflow=hidden;rotatable=0;points=[[0,0.5],[1,0.5]];portConstraint=eastwest;whiteSpace=wrap;html=1;" parent="rWIqrQfGSt81gzxZxEG9-4" vertex="1">
          <mxGeometry y="26" width="170" height="26" as="geometry" />
        </mxCell>
        <mxCell id="rWIqrQfGSt81gzxZxEG9-6" value="+ fid : int (PK,FK)" style="text;strokeColor=none;fillColor=none;align=left;verticalAlign=top;spacingLeft=4;spacingRight=4;overflow=hidden;rotatable=0;points=[[0,0.5],[1,0.5]];portConstraint=eastwest;whiteSpace=wrap;html=1;" parent="rWIqrQfGSt81gzxZxEG9-4" vertex="1">
          <mxGeometry y="52" width="170" height="26" as="geometry" />
        </mxCell>
        <mxCell id="rWIqrQfGSt81gzxZxEG9-7" value="+ added_at : datetime" style="text;strokeColor=none;fillColor=none;align=left;verticalAlign=top;spacingLeft=4;spacingRight=4;overflow=hidden;rotatable=0;points=[[0,0.5],[1,0.5]];portConstraint=eastwest;whiteSpace=wrap;html=1;" parent="rWIqrQfGSt81gzxZxEG9-4" vertex="1">
          <mxGeometry y="78" width="170" height="26" as="geometry" />
        </mxCell>
        <mxCell id="W475YhEFBiKG1YQ3zs8J-3" value="+ pending : boolean" style="text;strokeColor=none;fillColor=none;align=left;verticalAlign=top;spacingLeft=4;spacingRight=4;overflow=hidden;rotatable=0;points=[[0,0.5],[1,0.5]];portConstraint=eastwest;whiteSpace=wrap;html=1;" parent="rWIqrQfGSt81gzxZxEG9-4" vertex="1">
          <mxGeometry y="104" width="170" height="26" as="geometry" />
        </mxCell>
        <mxCell id="rWIqrQfGSt81gzxZxEG9-19" value="" style="endArrow=none;html=1;rounded=0;" parent="1" edge="1">
          <mxGeometry width="50" height="50" relative="1" as="geometry">
            <mxPoint x="200" y="60" as="sourcePoint" />
            <mxPoint x="200" y="40" as="targetPoint" />
          </mxGeometry>
        </mxCell>
        <mxCell id="rWIqrQfGSt81gzxZxEG9-20" value="user" style="text;html=1;align=center;verticalAlign=middle;resizable=0;points=[];autosize=1;strokeColor=none;fillColor=none;" parent="1" vertex="1">
          <mxGeometry x="250" y="101" width="50" height="30" as="geometry" />
        </mxCell>
        <mxCell id="rWIqrQfGSt81gzxZxEG9-21" value="friend" style="text;html=1;align=center;verticalAlign=middle;resizable=0;points=[];autosize=1;strokeColor=none;fillColor=none;" parent="1" vertex="1">
          <mxGeometry x="130" y="128" width="60" height="30" as="geometry" />
        </mxCell>
        <mxCell id="rWIqrQfGSt81gzxZxEG9-22" value="0..*" style="text;html=1;align=center;verticalAlign=middle;resizable=0;points=[];autosize=1;strokeColor=none;fillColor=none;" parent="1" vertex="1">
          <mxGeometry x="221" y="98" width="40" height="30" as="geometry" />
        </mxCell>
        <mxCell id="rWIqrQfGSt81gzxZxEG9-23" value="0..*" style="text;html=1;align=center;verticalAlign=middle;resizable=0;points=[];autosize=1;strokeColor=none;fillColor=none;" parent="1" vertex="1">
          <mxGeometry x="150" y="148" width="40" height="30" as="geometry" />
        </mxCell>
        <mxCell id="rWIqrQfGSt81gzxZxEG9-24" value="game_interaction" style="swimlane;fontStyle=0;childLayout=stackLayout;horizontal=1;startSize=26;fillColor=none;horizontalStack=0;resizeParent=1;resizeParentMax=0;resizeLast=0;collapsible=1;marginBottom=0;whiteSpace=wrap;html=1;" parent="1" vertex="1">
          <mxGeometry x="167.5" y="440" width="185" height="130" as="geometry" />
        </mxCell>
        <mxCell id="rWIqrQfGSt81gzxZxEG9-25" value="+ uid : int (PK,FK)" style="text;strokeColor=none;fillColor=none;align=left;verticalAlign=top;spacingLeft=4;spacingRight=4;overflow=hidden;rotatable=0;points=[[0,0.5],[1,0.5]];portConstraint=eastwest;whiteSpace=wrap;html=1;" parent="rWIqrQfGSt81gzxZxEG9-24" vertex="1">
          <mxGeometry y="26" width="185" height="26" as="geometry" />
        </mxCell>
        <mxCell id="rWIqrQfGSt81gzxZxEG9-27" value="+ gid : int (PK,FK)" style="text;strokeColor=none;fillColor=none;align=left;verticalAlign=top;spacingLeft=4;spacingRight=4;overflow=hidden;rotatable=0;points=[[0,0.5],[1,0.5]];portConstraint=eastwest;whiteSpace=wrap;html=1;" parent="rWIqrQfGSt81gzxZxEG9-24" vertex="1">
          <mxGeometry y="52" width="185" height="26" as="geometry" />
        </mxCell>
        <mxCell id="rWIqrQfGSt81gzxZxEG9-28" value="+ startplay_at : datetime (PK)" style="text;strokeColor=none;fillColor=none;align=left;verticalAlign=top;spacingLeft=4;spacingRight=4;overflow=hidden;rotatable=0;points=[[0,0.5],[1,0.5]];portConstraint=eastwest;whiteSpace=wrap;html=1;" parent="rWIqrQfGSt81gzxZxEG9-24" vertex="1">
          <mxGeometry y="78" width="185" height="26" as="geometry" />
        </mxCell>
        <mxCell id="rWIqrQfGSt81gzxZxEG9-29" value="+ duration : interval" style="text;strokeColor=none;fillColor=none;align=left;verticalAlign=top;spacingLeft=4;spacingRight=4;overflow=hidden;rotatable=0;points=[[0,0.5],[1,0.5]];portConstraint=eastwest;whiteSpace=wrap;html=1;" parent="rWIqrQfGSt81gzxZxEG9-24" vertex="1">
          <mxGeometry y="104" width="185" height="26" as="geometry" />
        </mxCell>
        <mxCell id="rWIqrQfGSt81gzxZxEG9-32" style="edgeStyle=orthogonalEdgeStyle;rounded=0;orthogonalLoop=1;jettySize=auto;html=1;endArrow=none;startFill=0;" parent="1" source="rWIqrQfGSt81gzxZxEG9-27" target="2pVqwqvjS9LqauzNDk25-11" edge="1">
          <mxGeometry relative="1" as="geometry">
            <Array as="points">
              <mxPoint x="420" y="515" />
              <mxPoint x="420" y="515" />
            </Array>
          </mxGeometry>
        </mxCell>
        <mxCell id="rWIqrQfGSt81gzxZxEG9-46" value="purchases" style="swimlane;fontStyle=0;childLayout=stackLayout;horizontal=1;startSize=26;fillColor=none;horizontalStack=0;resizeParent=1;resizeParentMax=0;resizeLast=0;collapsible=1;marginBottom=0;whiteSpace=wrap;html=1;" parent="1" vertex="1">
          <mxGeometry x="545" y="620" width="140" height="156" as="geometry" />
        </mxCell>
        <mxCell id="rWIqrQfGSt81gzxZxEG9-47" value="+ pid : int (PK)" style="text;strokeColor=none;fillColor=none;align=left;verticalAlign=top;spacingLeft=4;spacingRight=4;overflow=hidden;rotatable=0;points=[[0,0.5],[1,0.5]];portConstraint=eastwest;whiteSpace=wrap;html=1;" parent="rWIqrQfGSt81gzxZxEG9-46" vertex="1">
          <mxGeometry y="26" width="140" height="26" as="geometry" />
        </mxCell>
        <mxCell id="rWIqrQfGSt81gzxZxEG9-66" value="+ gid : int (PK,FK)" style="text;strokeColor=none;fillColor=none;align=left;verticalAlign=top;spacingLeft=4;spacingRight=4;overflow=hidden;rotatable=0;points=[[0,0.5],[1,0.5]];portConstraint=eastwest;whiteSpace=wrap;html=1;" parent="rWIqrQfGSt81gzxZxEG9-46" vertex="1">
          <mxGeometry y="52" width="140" height="26" as="geometry" />
        </mxCell>
        <mxCell id="rWIqrQfGSt81gzxZxEG9-55" value="+ type : purchase_type&lt;div&gt;&amp;nbsp;&lt;/div&gt;" style="text;strokeColor=none;fillColor=none;align=left;verticalAlign=top;spacingLeft=4;spacingRight=4;overflow=hidden;rotatable=0;points=[[0,0.5],[1,0.5]];portConstraint=eastwest;whiteSpace=wrap;html=1;" parent="rWIqrQfGSt81gzxZxEG9-46" vertex="1">
          <mxGeometry y="78" width="140" height="26" as="geometry" />
        </mxCell>
        <mxCell id="rWIqrQfGSt81gzxZxEG9-49" value="+ price : float&lt;div&gt;&amp;nbsp;&lt;/div&gt;" style="text;strokeColor=none;fillColor=none;align=left;verticalAlign=top;spacingLeft=4;spacingRight=4;overflow=hidden;rotatable=0;points=[[0,0.5],[1,0.5]];portConstraint=eastwest;whiteSpace=wrap;html=1;" parent="rWIqrQfGSt81gzxZxEG9-46" vertex="1">
          <mxGeometry y="104" width="140" height="26" as="geometry" />
        </mxCell>
        <mxCell id="rWIqrQfGSt81gzxZxEG9-48" value="+ descr : string&lt;div&gt;&amp;nbsp;&lt;/div&gt;" style="text;strokeColor=none;fillColor=none;align=left;verticalAlign=top;spacingLeft=4;spacingRight=4;overflow=hidden;rotatable=0;points=[[0,0.5],[1,0.5]];portConstraint=eastwest;whiteSpace=wrap;html=1;" parent="rWIqrQfGSt81gzxZxEG9-46" vertex="1">
          <mxGeometry y="130" width="140" height="26" as="geometry" />
        </mxCell>
        <mxCell id="rWIqrQfGSt81gzxZxEG9-56" style="edgeStyle=orthogonalEdgeStyle;rounded=0;orthogonalLoop=1;jettySize=auto;html=1;endArrow=diamondThin;endFill=1;" parent="1" source="rWIqrQfGSt81gzxZxEG9-50" target="rWIqrQfGSt81gzxZxEG9-55" edge="1">
          <mxGeometry relative="1" as="geometry" />
        </mxCell>
        <mxCell id="rWIqrQfGSt81gzxZxEG9-50" value="&lt;span style=&quot;text-align: left;&quot;&gt;purchase_type&lt;/span&gt;" style="swimlane;fontStyle=0;childLayout=stackLayout;horizontal=1;startSize=26;fillColor=none;horizontalStack=0;resizeParent=1;resizeParentMax=0;resizeLast=0;collapsible=1;marginBottom=0;whiteSpace=wrap;html=1;" parent="1" vertex="1">
          <mxGeometry x="740" y="633" width="140" height="156" as="geometry" />
        </mxCell>
        <mxCell id="rWIqrQfGSt81gzxZxEG9-51" value="+&amp;nbsp;game_purchase" style="text;strokeColor=none;fillColor=none;align=left;verticalAlign=top;spacingLeft=4;spacingRight=4;overflow=hidden;rotatable=0;points=[[0,0.5],[1,0.5]];portConstraint=eastwest;whiteSpace=wrap;html=1;" parent="rWIqrQfGSt81gzxZxEG9-50" vertex="1">
          <mxGeometry y="26" width="140" height="26" as="geometry" />
        </mxCell>
        <mxCell id="rWIqrQfGSt81gzxZxEG9-52" value="+&amp;nbsp;in_game_purchase&lt;div&gt;&amp;nbsp;&lt;/div&gt;" style="text;strokeColor=none;fillColor=none;align=left;verticalAlign=top;spacingLeft=4;spacingRight=4;overflow=hidden;rotatable=0;points=[[0,0.5],[1,0.5]];portConstraint=eastwest;whiteSpace=wrap;html=1;" parent="rWIqrQfGSt81gzxZxEG9-50" vertex="1">
          <mxGeometry y="52" width="140" height="26" as="geometry" />
        </mxCell>
        <mxCell id="rWIqrQfGSt81gzxZxEG9-53" value="+&amp;nbsp;subscriptions&lt;div&gt;&amp;nbsp;&lt;/div&gt;" style="text;strokeColor=none;fillColor=none;align=left;verticalAlign=top;spacingLeft=4;spacingRight=4;overflow=hidden;rotatable=0;points=[[0,0.5],[1,0.5]];portConstraint=eastwest;whiteSpace=wrap;html=1;" parent="rWIqrQfGSt81gzxZxEG9-50" vertex="1">
          <mxGeometry y="78" width="140" height="26" as="geometry" />
        </mxCell>
        <mxCell id="W475YhEFBiKG1YQ3zs8J-1" value="+ DLC&lt;div&gt;&amp;nbsp;&lt;/div&gt;" style="text;strokeColor=none;fillColor=none;align=left;verticalAlign=top;spacingLeft=4;spacingRight=4;overflow=hidden;rotatable=0;points=[[0,0.5],[1,0.5]];portConstraint=eastwest;whiteSpace=wrap;html=1;" parent="rWIqrQfGSt81gzxZxEG9-50" vertex="1">
          <mxGeometry y="104" width="140" height="26" as="geometry" />
        </mxCell>
        <mxCell id="W475YhEFBiKG1YQ3zs8J-2" value="+ etc&lt;div&gt;&amp;nbsp;&lt;/div&gt;" style="text;strokeColor=none;fillColor=none;align=left;verticalAlign=top;spacingLeft=4;spacingRight=4;overflow=hidden;rotatable=0;points=[[0,0.5],[1,0.5]];portConstraint=eastwest;whiteSpace=wrap;html=1;" parent="rWIqrQfGSt81gzxZxEG9-50" vertex="1">
          <mxGeometry y="130" width="140" height="26" as="geometry" />
        </mxCell>
        <mxCell id="rWIqrQfGSt81gzxZxEG9-62" style="edgeStyle=orthogonalEdgeStyle;rounded=0;orthogonalLoop=1;jettySize=auto;html=1;endArrow=none;startFill=0;" parent="1" source="rWIqrQfGSt81gzxZxEG9-46" edge="1" target="2pVqwqvjS9LqauzNDk25-85">
          <mxGeometry relative="1" as="geometry">
            <mxPoint x="620.0175438596491" y="603" as="sourcePoint" />
            <mxPoint x="585.52" y="545.9979999999998" as="targetPoint" />
            <Array as="points">
              <mxPoint x="620" y="574" />
              <mxPoint x="585" y="574" />
            </Array>
          </mxGeometry>
        </mxCell>
        <mxCell id="Zc4zKIkPFqTuDIG2BIl9-5" style="edgeStyle=orthogonalEdgeStyle;rounded=0;orthogonalLoop=1;jettySize=auto;html=1;endArrow=diamondThin;endFill=1;" edge="1" parent="1" source="Zc4zKIkPFqTuDIG2BIl9-2" target="2pVqwqvjS9LqauzNDk25-25">
          <mxGeometry relative="1" as="geometry" />
        </mxCell>
        <mxCell id="Zc4zKIkPFqTuDIG2BIl9-2" value="rating_type" style="swimlane;fontStyle=0;childLayout=stackLayout;horizontal=1;startSize=26;fillColor=none;horizontalStack=0;resizeParent=1;resizeParentMax=0;resizeLast=0;collapsible=1;marginBottom=0;whiteSpace=wrap;html=1;" vertex="1" parent="1">
          <mxGeometry x="720" y="512" width="150" height="108" as="geometry" />
        </mxCell>
        <mxCell id="Zc4zKIkPFqTuDIG2BIl9-3" value="+ general&lt;div&gt;&amp;nbsp;&lt;/div&gt;" style="text;strokeColor=none;fillColor=none;align=left;verticalAlign=top;spacingLeft=4;spacingRight=4;overflow=hidden;rotatable=0;points=[[0,0.5],[1,0.5]];portConstraint=eastwest;whiteSpace=wrap;html=1;" vertex="1" parent="Zc4zKIkPFqTuDIG2BIl9-2">
          <mxGeometry y="26" width="150" height="26" as="geometry" />
        </mxCell>
        <mxCell id="Zc4zKIkPFqTuDIG2BIl9-4" value="+ mature&amp;nbsp;&amp;nbsp;" style="text;strokeColor=none;fillColor=none;align=left;verticalAlign=top;spacingLeft=4;spacingRight=4;overflow=hidden;rotatable=0;points=[[0,0.5],[1,0.5]];portConstraint=eastwest;whiteSpace=wrap;html=1;" vertex="1" parent="Zc4zKIkPFqTuDIG2BIl9-2">
          <mxGeometry y="52" width="150" height="28" as="geometry" />
        </mxCell>
        <mxCell id="Zc4zKIkPFqTuDIG2BIl9-6" value="+ sensitive" style="text;strokeColor=none;fillColor=none;align=left;verticalAlign=top;spacingLeft=4;spacingRight=4;overflow=hidden;rotatable=0;points=[[0,0.5],[1,0.5]];portConstraint=eastwest;whiteSpace=wrap;html=1;" vertex="1" parent="Zc4zKIkPFqTuDIG2BIl9-2">
          <mxGeometry y="80" width="150" height="28" as="geometry" />
        </mxCell>
        <mxCell id="Zc4zKIkPFqTuDIG2BIl9-21" style="edgeStyle=orthogonalEdgeStyle;rounded=0;orthogonalLoop=1;jettySize=auto;html=1;endArrow=diamondThin;endFill=1;" edge="1" parent="1" source="Zc4zKIkPFqTuDIG2BIl9-15" target="0NqdiBWct_r0nhPSizSn-20">
          <mxGeometry relative="1" as="geometry" />
        </mxCell>
        <mxCell id="Zc4zKIkPFqTuDIG2BIl9-15" value="t_method" style="swimlane;fontStyle=0;childLayout=stackLayout;horizontal=1;startSize=26;fillColor=none;horizontalStack=0;resizeParent=1;resizeParentMax=0;resizeLast=0;collapsible=1;marginBottom=0;whiteSpace=wrap;html=1;" vertex="1" parent="1">
          <mxGeometry x="700" y="175" width="150" height="138" as="geometry" />
        </mxCell>
        <mxCell id="Zc4zKIkPFqTuDIG2BIl9-17" value="+ credit_card&amp;nbsp;&amp;nbsp;" style="text;strokeColor=none;fillColor=none;align=left;verticalAlign=top;spacingLeft=4;spacingRight=4;overflow=hidden;rotatable=0;points=[[0,0.5],[1,0.5]];portConstraint=eastwest;whiteSpace=wrap;html=1;" vertex="1" parent="Zc4zKIkPFqTuDIG2BIl9-15">
          <mxGeometry y="26" width="150" height="28" as="geometry" />
        </mxCell>
        <mxCell id="Zc4zKIkPFqTuDIG2BIl9-20" value="+ debit_card" style="text;strokeColor=none;fillColor=none;align=left;verticalAlign=top;spacingLeft=4;spacingRight=4;overflow=hidden;rotatable=0;points=[[0,0.5],[1,0.5]];portConstraint=eastwest;whiteSpace=wrap;html=1;" vertex="1" parent="Zc4zKIkPFqTuDIG2BIl9-15">
          <mxGeometry y="54" width="150" height="28" as="geometry" />
        </mxCell>
        <mxCell id="Zc4zKIkPFqTuDIG2BIl9-18" value="+ paypal" style="text;strokeColor=none;fillColor=none;align=left;verticalAlign=top;spacingLeft=4;spacingRight=4;overflow=hidden;rotatable=0;points=[[0,0.5],[1,0.5]];portConstraint=eastwest;whiteSpace=wrap;html=1;" vertex="1" parent="Zc4zKIkPFqTuDIG2BIl9-15">
          <mxGeometry y="82" width="150" height="28" as="geometry" />
        </mxCell>
        <mxCell id="Zc4zKIkPFqTuDIG2BIl9-23" value="+ etc" style="text;strokeColor=none;fillColor=none;align=left;verticalAlign=top;spacingLeft=4;spacingRight=4;overflow=hidden;rotatable=0;points=[[0,0.5],[1,0.5]];portConstraint=eastwest;whiteSpace=wrap;html=1;" vertex="1" parent="Zc4zKIkPFqTuDIG2BIl9-15">
          <mxGeometry y="110" width="150" height="28" as="geometry" />
        </mxCell>
      </root>
    </mxGraphModel>
  </diagram>
</mxfile>
